<svg width="958" height="170" viewBox="0 0 958 170" fill="none" xmlns="http://www.w3.org/2000/svg">
<path d="M207.96 61.7167C212.044 55.0622 217.337 49.8445 223.84 46.0636C230.495 42.2826 238.056 40.3922 246.526 40.3922V73.7401H238.132C228.15 73.7401 220.588 76.0843 215.446 80.7726C210.456 85.461 207.96 93.6278 207.96 105.273V167.886H176.2L176.2 42.207L207.96 42.207V61.7167ZM384.748 102.324C384.748 106.861 384.446 110.945 383.841 114.574L291.964 114.574C292.72 123.649 295.896 130.757 301.492 135.899C307.088 141.041 313.969 143.612 322.136 143.612C333.933 143.612 342.326 138.545 347.317 128.413H381.572C377.943 140.512 370.986 150.493 360.702 158.358C350.418 166.071 337.789 169.927 322.817 169.927C310.718 169.927 299.829 167.281 290.149 161.987C280.621 156.543 273.135 148.905 267.691 139.075C262.397 129.244 259.751 117.902 259.751 105.046C259.751 92.0399 262.397 80.6214 267.691 70.791C272.984 60.9605 280.394 53.3986 289.922 48.1053C299.45 42.812 310.415 40.1653 322.817 40.1653C334.764 40.1653 345.427 42.7364 354.803 47.8784C364.331 53.0205 371.666 60.3556 376.808 69.8835C382.102 79.2603 384.748 90.0738 384.748 102.324ZM351.854 93.2498C351.703 85.0829 348.754 78.5797 343.007 73.7401C337.26 68.7492 330.227 66.2538 321.909 66.2538C314.045 66.2538 307.39 68.6736 301.946 73.5132C296.653 78.2016 293.401 84.7804 292.191 93.2498L351.854 93.2498ZM399.764 104.593C399.764 91.8886 402.259 80.6214 407.25 70.791C412.392 60.9605 419.349 53.3986 428.121 48.1053C436.892 42.812 446.647 40.1653 457.385 40.1653C465.552 40.1653 473.341 41.9802 480.751 45.6099C488.162 49.0883 494.06 53.7767 498.446 59.675V0.0117188L530.66 0.0117188V167.886H498.446V149.283C494.514 155.484 488.994 160.475 481.886 164.256C474.777 168.037 466.535 169.927 457.158 169.927C446.572 169.927 436.892 167.205 428.121 161.76C419.349 156.316 412.392 148.678 407.25 138.848C402.259 128.866 399.764 117.448 399.764 104.593ZM498.673 105.046C498.673 97.3332 497.161 90.7543 494.136 85.3098C491.111 79.714 487.028 75.4793 481.886 72.6058C476.744 69.5811 471.223 68.0687 465.325 68.0687C459.427 68.0687 453.982 69.5054 448.991 72.379C444.001 75.2525 439.917 79.4871 436.741 85.0829C433.716 90.5275 432.204 97.0307 432.204 104.593C432.204 112.154 433.716 118.809 436.741 124.556C439.917 130.152 444.001 134.462 448.991 137.487C454.134 140.512 459.578 142.024 465.325 142.024C471.223 142.024 476.744 140.587 481.886 137.714C487.028 134.689 491.111 130.454 494.136 125.01C497.161 119.414 498.673 112.759 498.673 105.046ZM553.512 104.593C553.512 91.8886 556.007 80.6214 560.998 70.791C566.141 60.9605 573.098 53.3986 581.87 48.1053C590.642 42.812 600.396 40.1653 611.134 40.1653C619.301 40.1653 627.09 41.9802 634.501 45.6099C641.911 49.0883 647.809 53.7767 652.195 59.675V0.0117188L684.409 0.0117188V167.886H652.195V149.283C648.263 155.484 642.743 160.475 635.635 164.256C628.527 168.037 620.284 169.927 610.907 169.927C600.321 169.927 590.642 167.205 581.87 161.76C573.098 156.316 566.141 148.678 560.998 138.848C556.007 128.866 553.512 117.448 553.512 104.593ZM652.422 105.046C652.422 97.3332 650.91 90.7543 647.885 85.3098C644.86 79.714 640.777 75.4793 635.635 72.6058C630.493 69.5811 624.973 68.0687 619.074 68.0687C613.176 68.0687 607.731 69.5054 602.74 72.379C597.75 75.2525 593.666 79.4871 590.49 85.0829C587.466 90.5275 585.953 97.0307 585.953 104.593C585.953 112.154 587.466 118.809 590.49 124.556C593.666 130.152 597.75 134.462 602.74 137.487C607.883 140.512 613.327 142.024 619.074 142.024C624.973 142.024 630.493 140.587 635.635 137.714C640.777 134.689 644.86 130.454 647.885 125.01C650.91 119.414 652.422 112.759 652.422 105.046ZM771.234 169.927C759.135 169.927 748.246 167.281 738.567 161.987C728.888 156.543 721.25 148.905 715.655 139.075C710.21 129.244 707.488 117.902 707.488 105.046C707.488 92.1911 710.286 80.8483 715.881 71.0178C721.629 61.1874 729.417 53.6255 739.248 48.3322C749.078 42.8876 760.043 40.1653 772.142 40.1653C784.241 40.1653 795.206 42.8876 805.036 48.3322C814.867 53.6255 822.58 61.1874 828.176 71.0178C833.923 80.8483 836.796 92.1911 836.796 105.046C836.796 117.902 833.847 129.244 827.949 139.075C822.202 148.905 814.337 156.543 804.356 161.987C794.525 167.281 783.485 169.927 771.234 169.927ZM771.234 142.251C776.982 142.251 782.351 140.89 787.341 138.167C792.483 135.294 796.567 131.059 799.592 125.463C802.616 119.868 804.129 113.062 804.129 105.046C804.129 93.0985 800.953 83.9486 794.601 77.5967C788.4 71.0934 780.763 67.8418 771.688 67.8418C762.614 67.8418 754.976 71.0934 748.776 77.5967C742.726 83.9486 739.701 93.0985 739.701 105.046C739.701 116.994 742.651 126.22 748.549 132.723C754.598 139.075 762.16 142.251 771.234 142.251ZM908.187 169.927C897.903 169.927 888.677 168.112 880.51 164.483C872.344 160.702 865.84 155.635 861.001 149.283C856.312 142.931 853.741 135.899 853.288 128.186H885.274C885.879 133.025 888.224 137.033 892.307 140.209C896.542 143.385 901.759 144.973 907.96 144.973C914.01 144.973 918.698 143.763 922.025 141.343C925.504 138.924 927.243 135.823 927.243 132.042C927.243 127.959 925.125 124.934 920.891 122.968C916.807 120.851 910.229 118.582 901.154 116.162C891.778 113.894 884.064 111.55 878.015 109.13C872.117 106.71 866.975 103.005 862.589 98.0137C858.354 93.0229 856.237 86.2928 856.237 77.8235C856.237 70.8666 858.203 64.5146 862.135 58.7676C866.218 53.0205 871.965 48.4834 879.376 45.1562C886.938 41.8289 895.785 40.1653 905.918 40.1653C920.891 40.1653 932.839 43.9463 941.765 51.5082C950.688 58.9188 955.604 68.9761 956.511 81.6801L926.109 81.6801C925.655 76.6892 923.537 72.7571 919.757 69.8835C916.127 66.8588 911.212 65.3464 905.011 65.3464C899.264 65.3464 894.802 66.4051 891.626 68.5224C888.602 70.6397 887.089 73.5889 887.089 77.3698C887.089 81.6045 889.207 84.8561 893.441 87.1246C897.676 89.242 904.255 91.4349 913.178 93.7035C922.252 95.972 929.738 98.3162 935.636 100.736C941.539 103.156 946.605 106.937 950.84 112.079C955.226 117.07 957.494 123.724 957.645 132.042C957.645 139.302 955.604 145.805 951.52 151.552C947.588 157.299 941.841 161.836 934.275 165.163C926.865 168.339 918.169 169.927 908.187 169.927Z" fill="url(#paint0_linear_2126_542)"/>
<path d="M55.2418 128.407L149.86 128.407L149.859 150.15C148.696 165.316 144.499 169.357 131.78 169.975L18.4796 169.975C4.14494 170.368 -0.00173659 166.238 0.399709 150.15L0.399709 33.1218C0.414367 17.5955 -3.92812 -0.493321 15.6696 0.0102839L131.998 0.0102839C152.342 0.0102919 149.976 14 149.86 42L68.128 42C39.2682 41.5 40.2145 46.5 40.1753 69.5L40.1753 111.78C40.552 123.983 43.8549 127.697 55.2418 128.407Z" fill="#22F1E7"/>
<defs>
<linearGradient id="paint0_linear_2126_542" x1="186" y1="104.5" x2="1022.17" y2="56.7958" gradientUnits="userSpaceOnUse">
<stop stop-color="#22F1E7"/>
<stop offset="1" stop-color="#0075F2"/>
</linearGradient>
</defs>
</svg>
